<svg width="674" height="674" viewBox="0 0 674 674" fill="none" xmlns="http://www.w3.org/2000/svg">
<rect width="674" height="674" rx="120" fill="#E9EBF8"/>
<path d="M380.965 569.665C380.967 569.665 380.969 569.669 380.966 569.671C324.824 621.846 241.85 552.516 282.875 488.161C295.814 466.222 319.928 468.55 320.872 441.818C323.231 387.913 311.936 406.672 285.417 375.133C266.48 350.105 269.22 313.788 291.537 291.787C298.981 283.374 311.174 279.951 316.822 270.076C322.805 259.35 322.805 226.578 316.183 216.293C301.356 194.506 286.513 209.994 274.167 225.178C265.429 239.008 266.084 252.336 249.262 261.526C240.022 266.547 229.442 266.927 221.724 274.428C217.857 278.199 212.557 282.247 208.988 286.974C203.443 294.316 207.712 303.999 210.077 312.891C217.54 340.942 208.901 371.062 182.037 387.274C109.24 428.505 44.6945 326.264 114.142 278.46C129.365 268.57 148.607 265.74 166.022 270.67C175.217 272.587 183.057 280.377 192.176 276.269C199.787 272.176 206.607 264.523 212.224 257.89C216.609 252.397 217.872 246.6 220.612 239.982C223.459 233.151 228.376 227.126 234.45 222.881C242.595 216.704 253.342 216.719 261.38 210.892C265.047 207.67 269.805 204.174 273.748 200.184C282.372 191.458 278.128 178.307 275.587 166.305C270.513 142.336 275.91 117.965 297.093 100.769C356.098 54.0608 432.853 127.729 389.345 188.405C374.381 209.873 351.714 206.069 352.947 238.05C350.876 285.443 367.393 270.883 389.649 300.399C407.613 325.594 404.172 361.424 381.794 382.892C374.442 390.849 362.811 394.318 357.361 403.888C352.277 413.306 353.251 424.808 353.19 435.184C352.551 448.725 358.046 467.165 373.939 468.671C383.012 468.534 388.995 460.258 395.693 453.807C409.805 438.531 404.796 420.913 428.605 410.689C436.491 407.509 443.691 406.824 450.664 400.906C456.448 396.098 463.969 389.221 467.135 383.713C471.062 377.582 467.576 370.492 465.11 364.041C462.888 358.092 461.533 351.793 461.152 345.51C459.737 325.153 468.901 304.522 484.885 291.742C534.314 251.712 605.756 301.281 586.301 361.363C575.965 395.748 534.406 415.223 501.722 401.256C494.871 398.7 488.325 394.105 481.11 398.061C475.594 401.438 470.325 406.256 465.747 411.407C461.762 415.891 458.6 421.041 456.216 426.547C451.103 438.356 447.938 448.286 432.67 455.07C423.232 458.584 413.991 460.425 406.821 467.819C403.889 470.713 400.213 473.795 397.338 477.257C391.349 484.467 394.887 494.439 397.298 503.496C403.573 527.072 400.491 550.436 381.17 569.452L380.962 569.66C380.96 569.662 380.962 569.665 380.965 569.665Z" fill="#0B213D"/>
</svg>
