<svg width="1467" height="326" viewBox="0 0 1467 326" fill="none" xmlns="http://www.w3.org/2000/svg">
<path d="M192.551 314.093C156.098 347.983 102.218 302.958 128.856 261.164C137.258 246.917 152.915 248.429 153.528 231.069C155.06 196.063 147.726 208.245 130.507 187.763C118.211 171.51 119.99 147.926 134.481 133.639C139.314 128.175 147.231 125.952 150.899 119.54C154.783 112.574 154.783 91.2917 150.483 84.6126C140.856 70.464 131.219 80.5222 123.202 90.3827C117.529 99.364 117.954 108.019 107.032 113.987C101.032 117.247 94.1621 117.494 89.1508 122.365C84.6237 126.782 77.072 131.781 78.5349 138.895C87.9053 159.189 83.5661 183.465 63.3822 195.648C16.115 222.424 -25.7948 156.028 19.2978 124.984C29.1822 118.561 41.676 116.724 52.9838 119.925C58.9539 121.17 64.0444 126.229 69.9652 123.561C74.9074 120.903 79.3356 115.933 82.9829 111.625C85.8296 108.059 86.65 104.294 88.4292 99.9963C90.2776 95.56 93.4702 91.6474 97.4141 88.8908C102.702 84.8794 109.681 84.8893 114.9 81.1051C120.049 76.5799 128.51 71.2248 127.769 63.5873C119.723 44.7059 120.929 23.5225 138.088 9.59123C176.4 -20.7414 226.237 27.0992 197.988 66.502C188.271 80.4431 173.554 77.973 174.354 98.7415C173.01 129.519 183.734 120.063 198.185 139.231C209.849 155.593 207.615 178.861 193.085 192.802C188.311 197.97 180.759 200.222 177.221 206.437C173.919 212.553 174.552 220.023 174.512 226.761C174.097 235.555 177.665 247.529 187.985 248.508C193.876 248.419 197.76 243.044 202.11 238.855C211.272 228.935 208.02 217.493 223.48 210.854C228.6 208.789 233.275 208.344 237.802 204.501C241.558 201.378 246.441 196.913 248.497 193.336C251.047 189.354 248.784 184.75 247.182 180.561C245.739 176.697 244.86 172.607 244.612 168.526C243.693 155.306 249.644 141.909 260.022 133.609C292.117 107.614 338.504 139.804 325.872 178.822C319.16 201.151 292.176 213.798 270.954 204.728C266.506 203.068 262.256 200.084 257.571 202.653C252.391 205.825 247.548 210.952 243.911 215.863C238.613 225.852 238.237 234.29 226.119 239.675C219.99 241.957 213.991 243.153 209.335 247.954C205.362 251.877 199.283 256.333 200.222 262.449C207.605 280.599 207.595 299.273 192.68 313.955L192.541 314.093H192.551Z" fill="#5C9AFF"/>
<path d="M416.332 246.622C413.025 246.622 409.969 245.601 407.186 243.58C404.381 241.558 403 238.516 403 234.473V106.483C403 100.67 404.842 96.2935 408.525 93.3761C412.209 90.4587 416.206 89 420.539 89C427.152 89 431.987 91.5423 435.021 96.5852L497.955 194.943C499.232 196.964 500.634 197.985 502.141 197.985C504.422 197.985 505.573 196.214 505.573 192.671L504.045 101.149C504.045 97.1062 505.448 94.0637 508.231 92.0424C511.015 90.0211 514.07 89 517.377 89C520.684 89 523.74 90.0211 526.523 92.0424C529.328 94.0637 530.709 97.1062 530.709 101.149V229.889C530.709 235.453 529.056 239.641 525.749 242.413C522.442 245.205 518.633 246.581 514.301 246.581C511.245 246.581 508.252 245.872 505.343 244.497C502.413 243.1 499.943 240.892 497.913 237.849L436.173 142.18C434.896 140.158 433.494 139.137 431.987 139.137C429.705 139.137 428.554 140.909 428.554 144.451L429.705 234.453C429.705 238.495 428.366 241.538 425.708 243.559C423.029 245.58 419.932 246.601 416.374 246.601L416.332 246.622Z" fill="white"/>
<path d="M616.34 246.82C597.274 246.82 582.394 241.381 571.72 230.483C561.046 219.605 555.709 204.914 555.709 186.43C555.709 170.239 561.109 156.944 571.929 146.566C582.728 136.189 596.646 131 613.703 131C630.761 131 643.444 135.751 653.364 145.233C663.284 154.735 668.244 166.446 668.244 180.366C668.244 185.93 666.779 190.119 663.849 192.89C660.919 195.683 657.173 197.058 652.59 197.058H586.224C583.67 197.058 582.791 198.454 583.545 201.226C585.575 208.311 589.698 213.812 595.935 217.751C602.171 221.689 609.225 223.648 617.094 223.648C622.933 223.648 628.605 222.898 634.067 221.376C639.53 219.855 644.302 217.584 648.362 214.541C649.639 213.541 651.271 213.02 653.322 213.02C656.127 213.02 658.659 214.229 660.961 216.625C663.242 219.043 664.394 221.877 664.394 225.169C664.394 226.69 664.142 228.211 663.64 229.733C663.117 231.254 661.987 232.775 660.208 234.296C653.594 239.11 646.541 242.402 639.048 244.174C631.556 245.945 623.98 246.841 616.361 246.841L616.34 246.82ZM638.462 177.324C639.99 177.324 640.744 176.574 640.744 175.053C640.744 169.239 638.128 164.175 632.916 159.861C627.705 155.569 621.28 153.401 613.662 153.401C607.048 153.401 600.748 155.173 594.784 158.715C588.798 162.258 585.177 166.946 583.921 172.76V173.135C583.67 174.156 583.607 175.032 583.733 175.803C583.859 176.553 584.947 176.949 586.977 176.949L638.462 177.324Z" fill="white"/>
<path d="M774.135 143.524C774.135 139.981 775.349 137.001 777.756 134.605C780.163 132.209 783.281 131 787.09 131C790.648 131 793.704 132.209 796.236 134.605C798.769 137.022 800.046 139.981 800.046 143.524V197.079C800.046 208.477 797.492 217.834 792.427 225.19C787.342 232.546 780.728 237.985 772.587 241.527C764.445 245.07 755.802 246.841 746.656 246.841C737.51 246.841 728.845 245.07 720.724 241.527C712.583 237.985 705.969 232.546 700.884 225.19C695.798 217.855 693.245 208.477 693.245 197.079V143.524C693.245 139.981 694.459 137.001 696.865 134.605C699.272 132.209 702.391 131 706.2 131C709.758 131 712.813 132.209 715.346 134.605C717.878 137.022 719.155 139.981 719.155 143.524V197.079C719.155 206.456 721.938 213.166 727.547 217.209C733.135 221.272 739.498 223.294 746.614 223.294C753.73 223.294 760.406 221.272 765.868 217.209C771.331 213.166 774.073 206.456 774.073 197.079V143.524H774.135Z" fill="white"/>
<path d="M850.956 186.847V235.067C850.956 238.86 849.616 241.777 846.958 243.799C844.279 245.82 841.286 246.841 838 246.841C834.715 246.841 831.701 245.82 829.043 243.799C826.364 241.777 825.045 238.86 825.045 235.067V145.816C825.045 141.523 826.385 138.293 829.043 136.126C831.722 133.98 834.694 132.896 838 132.896C841.307 132.896 844.3 133.98 846.958 136.126C849.637 138.273 850.956 141.503 850.956 145.816V147.337C854.513 142.524 859.16 138.606 864.873 135.564C870.587 132.521 876.636 131 882.998 131C886.054 131 889.109 131.375 892.144 132.146C895.179 132.917 897.481 134.418 899.009 136.71C900.536 138.981 901.29 141.523 901.29 144.295C901.29 147.587 900.202 150.567 898.046 153.214C895.89 155.881 892.772 157.194 888.712 157.194C886.933 157.194 885.091 156.944 883.186 156.444C881.282 155.944 878.917 155.694 876.133 155.694C868.745 155.694 862.718 158.486 858.009 164.05C853.3 169.614 850.956 177.22 850.956 186.826V186.847Z" fill="white"/>
<path d="M1149.56 214.138C1147.66 211.241 1144.79 209.762 1140.98 209.762C1137.67 209.762 1134.99 210.658 1132.96 212.429C1123.29 219.785 1113.65 223.432 1103.98 223.432C1093.05 223.432 1084.6 220.348 1078.61 214.138C1072.65 207.928 1069.65 199.384 1069.65 188.506C1069.65 177.629 1072.46 170.085 1078.05 164.396C1083.63 158.687 1091.4 155.352 1101.32 154.331C1109.44 153.56 1118.21 156.353 1127.63 162.688C1129.41 163.688 1131.44 164.209 1133.74 164.209C1137.02 164.209 1139.95 163.063 1142.51 160.791C1145.04 158.499 1146.32 155.352 1146.32 151.289C1146.32 147.225 1144.54 144.079 1140.98 141.787C1130.31 134.701 1117.33 131.159 1102.07 131.159C1090.87 131.159 1080.91 133.576 1072.14 138.369C1063.35 143.183 1056.43 149.893 1051.34 158.499C1049.31 161.937 1047.68 165.605 1046.44 169.46C1044.75 174.816 1039.75 178.462 1034.09 178.462C1028.51 178.462 1023.55 174.899 1021.79 169.606C1020.53 165.855 1018.88 162.271 1016.83 158.874C1011.62 150.289 1004.56 143.495 995.669 138.577C986.774 133.639 976.728 131.159 965.531 131.159C954.334 131.159 944.246 133.639 935.205 138.577C926.184 143.495 919.131 150.289 914.045 158.874C908.96 167.501 906.427 177.233 906.427 188.131C906.427 199.03 908.96 209.324 914.045 218.305C919.131 227.308 926.184 234.33 935.205 239.394C944.246 244.458 954.334 246.979 965.531 246.979C976.728 246.979 986.774 244.458 995.669 239.394C1004.56 234.33 1011.62 227.308 1016.83 218.305C1018.06 216.201 1019.13 214.034 1020.07 211.825C1022.06 207.073 1029.16 204.052 1034.3 204.052C1039.6 204.052 1046 207.24 1047.93 212.158C1050.65 219.139 1054.73 225.307 1060.11 230.663C1071.06 241.54 1085.04 246.979 1102.07 246.979C1110.72 246.979 1118.86 245.916 1126.48 243.749C1134.11 241.603 1141.1 237.748 1147.47 232.184C1150.75 229.141 1152.43 225.849 1152.43 222.306C1152.43 219.785 1151.46 217.055 1149.56 214.138ZM989.557 213.763C983.467 220.223 975.451 223.432 965.531 223.432C955.611 223.432 947.281 220.223 941.316 213.763C935.33 207.303 932.358 198.759 932.358 188.131C932.358 177.504 935.33 169.898 941.316 163.813C947.281 157.749 955.359 154.706 965.531 154.706C975.702 154.706 983.467 157.749 989.557 163.813C995.669 169.898 998.724 178.004 998.724 188.131C998.724 198.759 995.669 207.303 989.557 213.763Z" fill="white"/>
<path d="M1222.6 246.799C1211.68 246.799 1201.88 244.257 1193.24 239.214C1184.59 234.15 1177.86 227.128 1173.02 218.146C1168.19 209.165 1165.78 199.1 1165.78 187.952C1165.78 176.803 1168.19 167.321 1173.02 158.715C1177.86 150.109 1184.59 143.336 1193.24 138.398C1201.88 133.459 1211.68 131 1222.6 131C1229.72 131 1236.08 132.209 1241.67 134.605C1247.26 137.022 1252.09 140.106 1256.15 143.899C1256.65 140.356 1258.18 137.627 1260.73 135.73C1263.27 133.834 1266.07 132.875 1269.13 132.875C1272.43 132.875 1275.43 133.959 1278.09 136.105C1280.76 138.252 1282.08 141.482 1282.08 145.795V235.046C1282.08 238.839 1280.74 241.756 1278.09 243.778C1275.41 245.799 1272.41 246.82 1269.13 246.82C1265.84 246.82 1262.83 245.799 1260.17 243.778C1257.49 241.756 1256.17 238.839 1256.17 235.046V233.525C1252.09 237.568 1247.28 240.798 1241.69 243.215C1236.1 245.612 1229.74 246.82 1222.62 246.82L1222.6 246.799ZM1224.88 223.252C1234.55 223.252 1242.17 220.022 1247.76 213.562C1253.35 207.102 1256.15 198.558 1256.15 187.931C1256.15 177.303 1253.35 169.697 1247.76 163.633C1242.17 157.548 1234.53 154.527 1224.88 154.527C1215.24 154.527 1206.95 157.569 1200.86 163.633C1194.75 169.718 1191.71 177.824 1191.71 187.931C1191.71 198.558 1194.77 207.102 1200.86 213.562C1206.97 220.022 1214.96 223.252 1224.88 223.252Z" fill="white"/>
<path d="M1320.04 247C1316.73 247 1313.74 245.979 1311.08 243.958C1308.4 241.936 1307.08 239.019 1307.08 235.226V90.9199C1307.08 86.6271 1308.42 83.3972 1311.08 81.23C1313.76 79.0836 1316.73 78 1320.04 78C1323.34 78 1326.34 79.0836 1329 81.23C1331.67 83.3763 1332.99 86.6063 1332.99 90.9199V235.226C1332.99 239.019 1331.65 241.936 1329 243.958C1326.32 245.979 1323.32 247 1320.04 247Z" fill="white"/>
<path d="M1416.36 246.82C1399.33 246.82 1385.35 241.381 1374.4 230.483C1363.48 219.605 1357.99 205.414 1357.99 187.952C1357.99 176.824 1360.53 166.946 1365.61 158.34C1370.7 149.734 1377.62 143.024 1386.39 138.21C1395.16 133.396 1405.15 131 1416.34 131C1431.6 131 1444.58 134.543 1455.25 141.628C1458.81 143.899 1460.59 147.066 1460.59 151.13C1460.59 155.193 1459.31 158.34 1456.78 160.632C1454.22 162.904 1451.32 164.05 1448.01 164.05C1445.73 164.05 1443.68 163.55 1441.9 162.529C1432.48 156.194 1423.71 153.422 1415.59 154.172C1405.67 155.193 1397.9 158.548 1392.32 164.237C1386.73 169.926 1383.92 177.97 1383.92 188.347C1383.92 199.246 1386.92 207.79 1392.88 213.979C1398.85 220.189 1407.3 223.273 1418.25 223.273C1427.92 223.273 1437.56 219.605 1447.23 212.27C1449.26 210.499 1451.94 209.603 1455.25 209.603C1459.06 209.603 1461.93 211.061 1463.83 213.979C1465.74 216.896 1466.7 219.626 1466.7 222.147C1466.7 225.69 1465.04 228.982 1461.74 232.025C1455.38 237.589 1448.39 241.465 1440.77 243.611C1433.13 245.757 1424.99 246.841 1416.36 246.841V246.82Z" fill="white"/>
</svg>
